<svg xmlns="http://www.w3.org/2000/svg" xmlns:xlink="http://www.w3.org/1999/xlink" version="1.1" x="0px" y="0px" viewBox="0 0 91 113.75" enable-background="new 0 0 91 91" xml:space="preserve"><g><path d="M21.372,40.804c-4.637,5.303-7.184,12.08-7.174,19.08c0.004,7.009,2.559,13.787,7.197,19.084   c0.419,0.479,1.005,0.724,1.595,0.724c0.494,0,0.992-0.172,1.394-0.524c0.879-0.77,0.969-2.109,0.197-2.99   c-3.96-4.525-6.146-10.313-6.147-16.298c-0.008-5.975,2.168-11.759,6.126-16.288c0.77-0.88,0.68-2.219-0.201-2.988   C23.479,39.833,22.14,39.923,21.372,40.804z"/><path d="M32.464,47.671c-0.883-0.768-2.22-0.678-2.99,0.203c-2.915,3.34-4.518,7.605-4.516,12.008c0,4.403,1.608,8.664,4.525,12   c0.419,0.479,1.005,0.724,1.595,0.724c0.496,0,0.992-0.172,1.394-0.522c0.881-0.77,0.969-2.109,0.199-2.99   c-2.243-2.564-3.478-5.835-3.478-9.214c-0.002-3.378,1.231-6.653,3.47-9.219C33.435,49.778,33.345,48.441,32.464,47.671z"/><path d="M36.787,65.503c0.419,0.477,1.005,0.722,1.593,0.722c0.496,0,0.994-0.174,1.396-0.527c0.879-0.772,0.967-2.108,0.195-2.99   c-0.496-0.565-1.088-1.515-1.09-2.831c0-1.313,0.594-2.273,1.092-2.848c0.768-0.881,0.674-2.22-0.209-2.987   c-0.881-0.766-2.22-0.674-2.987,0.208c-1.375,1.582-2.132,3.58-2.132,5.63C34.649,61.937,35.412,63.935,36.787,65.503z"/><path d="M56.382,17.875l0.312-0.95c1.44-4.408,3.618-11.069,8.321-12.043c1.146-0.237,1.883-1.358,1.645-2.503   c-0.237-1.145-1.35-1.879-2.505-1.645c-7.107,1.472-9.85,9.862-11.489,14.874l-0.307,0.933c-2.794,8.443-6.586,14.951-16.01,19.265   c-0.575,0.263-1.003,0.771-1.165,1.383c-0.163,0.613-0.042,1.266,0.328,1.78c1.212,1.686,3.215,3.186,5.954,4.46   c0.626,0.291,1.327,0.501,2.007,0.705c0.636,0.191,1.48,0.445,1.906,0.699c0.182,0.559,0.264,1.979,0.31,2.772   c0.098,1.682,0.174,3.009,0.801,3.938c2.566,3.819,6.971,3.547,10.857,3.3c1.188-0.073,2.336-0.14,3.384-0.109   c-0.653,2.25-3.012,3.702-6.49,5.6c-0.505,0.278-1.005,0.55-1.492,0.827c-3.422,1.954-4.248,3.995-3.156,7.806   c0.172,0.598,0.427,1.113,0.651,1.568c0.236,0.477,0.439,0.889,0.54,1.351c0.374,1.733,1.295,3.097,2.66,3.941   c3.066,1.901,7.548,0.758,10.823-0.073c0.469-0.121,0.912-0.233,1.308-0.325c0.489-0.111,1.226-0.358,2.163-0.67   c1.005-0.337,2.911-0.973,3.941-1.182c0.575,1.061,1.509,3.815,1.245,6.938c-0.224,2.625-1.237,4.642-3.015,5.991   c-0.933,0.708-1.114,2.036-0.408,2.968c0.417,0.548,1.049,0.837,1.689,0.837c0.446,0,0.896-0.14,1.279-0.431   c3.583-2.719,5.255-7.352,4.591-12.714c-0.297-2.397-1.398-6.71-3.629-7.661c-1.329-0.569-3.162-0.059-7.036,1.235   c-0.728,0.243-1.479,0.494-1.771,0.561c-0.427,0.1-0.9,0.219-1.402,0.347c-2.249,0.573-6.012,1.532-7.547,0.579   c-0.259-0.161-0.579-0.446-0.749-1.235c-0.21-0.975-0.584-1.728-0.883-2.333c-0.167-0.339-0.31-0.63-0.377-0.862   c-0.551-1.923-0.563-1.961,1.182-2.955c0.462-0.264,0.94-0.525,1.425-0.789c3.909-2.133,9.264-5.056,8.858-11.313   c-0.06-0.938-0.732-1.724-1.649-1.929c-2.076-0.465-4.273-0.33-6.397-0.195c-3.552,0.224-5.826,0.245-6.988-1.31   c-0.084-0.379-0.14-1.312-0.176-1.948c-0.134-2.297-0.261-4.468-1.644-5.645c-1.013-0.864-2.378-1.274-3.583-1.635   c-0.561-0.168-1.09-0.328-1.44-0.49c-0.908-0.422-1.706-0.869-2.38-1.328C50.254,33.002,53.895,25.392,56.382,17.875z"/></g><text x="0" y="106" fill="#000000" font-size="5px" font-weight="bold" font-family="'Helvetica Neue', Helvetica, Arial-Unicode, Arial, Sans-serif">Created by BomSymbols</text><text x="0" y="111" fill="#000000" font-size="5px" font-weight="bold" font-family="'Helvetica Neue', Helvetica, Arial-Unicode, Arial, Sans-serif">from the Noun Project</text></svg>